<svg width="155" height="25" viewBox="0 0 155 25" fill="none" xmlns="http://www.w3.org/2000/svg">
<path d="M12.408 24.448C10.6373 24.448 8.99467 24.1707 7.48 23.616C5.98667 23.04 4.68533 22.2293 3.576 21.184C2.488 20.1387 1.63467 18.912 1.016 17.504C0.397333 16.0747 0.0880001 14.5067 0.0880001 12.8C0.0880001 11.0933 0.397333 9.536 1.016 8.128C1.63467 6.69867 2.488 5.46133 3.576 4.416C4.68533 3.37067 5.98667 2.57067 7.48 2.016C8.99467 1.44 10.6373 1.152 12.408 1.152C14.4773 1.152 16.3227 1.51467 17.944 2.24C19.5867 2.96533 20.952 4.01067 22.04 5.376L18.008 9.024C17.2827 8.17067 16.4827 7.52 15.608 7.072C14.7547 6.624 13.7947 6.4 12.728 6.4C11.8107 6.4 10.968 6.54933 10.2 6.848C9.432 7.14667 8.77067 7.584 8.216 8.16C7.68267 8.71467 7.256 9.38667 6.936 10.176C6.63733 10.9653 6.488 11.84 6.488 12.8C6.488 13.76 6.63733 14.6347 6.936 15.424C7.256 16.2133 7.68267 16.896 8.216 17.472C8.77067 18.0267 9.432 18.4533 10.2 18.752C10.968 19.0507 11.8107 19.2 12.728 19.2C13.7947 19.2 14.7547 18.976 15.608 18.528C16.4827 18.08 17.2827 17.4293 18.008 16.576L22.04 20.224C20.952 21.568 19.5867 22.6133 17.944 23.36C16.3227 24.0853 14.4773 24.448 12.408 24.448ZM24.577 24V6.656H30.369V11.712L29.505 10.272C30.017 8.97067 30.849 8 32.001 7.36C33.153 6.69867 34.5503 6.368 36.193 6.368V11.84C35.9157 11.7973 35.6703 11.776 35.457 11.776C35.265 11.7547 35.0517 11.744 34.817 11.744C33.5797 11.744 32.577 12.0853 31.809 12.768C31.041 13.4293 30.657 14.5173 30.657 16.032V24H24.577ZM47.6338 24.288C45.5858 24.288 43.7938 23.904 42.2578 23.136C40.7431 22.3467 39.5591 21.28 38.7057 19.936C37.8738 18.5707 37.4578 17.024 37.4578 15.296C37.4578 13.568 37.8631 12.032 38.6738 10.688C39.5058 9.32267 40.6471 8.26667 42.0978 7.52C43.5484 6.752 45.1804 6.368 46.9938 6.368C48.7004 6.368 50.2578 6.72 51.6658 7.424C53.0738 8.10667 54.1938 9.12 55.0258 10.464C55.8578 11.808 56.2738 13.44 56.2738 15.36C56.2738 15.5733 56.2631 15.8187 56.2418 16.096C56.2204 16.3733 56.1991 16.6293 56.1778 16.864H42.4498V13.664H52.9458L50.6418 14.56C50.6631 13.7707 50.5138 13.088 50.1938 12.512C49.8951 11.936 49.4684 11.488 48.9138 11.168C48.3804 10.848 47.7511 10.688 47.0258 10.688C46.3004 10.688 45.6604 10.848 45.1058 11.168C44.5724 11.488 44.1564 11.9467 43.8578 12.544C43.5591 13.12 43.4098 13.8027 43.4098 14.592V15.52C43.4098 16.3733 43.5804 17.1093 43.9218 17.728C44.2844 18.3467 44.7964 18.8267 45.4578 19.168C46.1191 19.488 46.9084 19.648 47.8258 19.648C48.6791 19.648 49.4044 19.5307 50.0018 19.296C50.6204 19.04 51.2284 18.656 51.8258 18.144L55.0258 21.472C54.1938 22.3893 53.1698 23.0933 51.9538 23.584C50.7378 24.0533 49.2978 24.288 47.6338 24.288ZM62.8925 24L56.7165 6.656H62.4765L67.3725 21.152H64.6205L69.7085 6.656H74.8925L79.7885 21.152H77.1005L82.1565 6.656H87.5005L81.3245 24H75.4365L71.2765 12H73.0685L68.7805 24H62.8925ZM97.5935 24.288C95.6948 24.288 94.0095 23.904 92.5375 23.136C91.0655 22.368 89.9028 21.312 89.0495 19.968C88.2175 18.6027 87.8015 17.0453 87.8015 15.296C87.8015 13.5467 88.2175 12 89.0495 10.656C89.9028 9.312 91.0655 8.26667 92.5375 7.52C94.0095 6.752 95.6948 6.368 97.5935 6.368C99.4922 6.368 101.178 6.752 102.65 7.52C104.143 8.26667 105.306 9.312 106.138 10.656C106.97 12 107.386 13.5467 107.386 15.296C107.386 17.0453 106.97 18.6027 106.138 19.968C105.306 21.312 104.143 22.368 102.65 23.136C101.178 23.904 99.4922 24.288 97.5935 24.288ZM97.5935 19.456C98.2975 19.456 98.9162 19.296 99.4495 18.976C100.004 18.656 100.442 18.1867 100.762 17.568C101.082 16.928 101.242 16.1707 101.242 15.296C101.242 14.4213 101.082 13.6853 100.762 13.088C100.442 12.4693 100.004 12 99.4495 11.68C98.9162 11.36 98.2975 11.2 97.5935 11.2C96.9108 11.2 96.2922 11.36 95.7375 11.68C95.2042 12 94.7668 12.4693 94.4255 13.088C94.1055 13.6853 93.9455 14.4213 93.9455 15.296C93.9455 16.1707 94.1055 16.928 94.4255 17.568C94.7668 18.1867 95.2042 18.656 95.7375 18.976C96.2922 19.296 96.9108 19.456 97.5935 19.456ZM110.202 24V6.656H115.994V11.712L115.13 10.272C115.642 8.97067 116.474 8 117.626 7.36C118.778 6.69867 120.175 6.368 121.818 6.368V11.84C121.541 11.7973 121.295 11.776 121.082 11.776C120.89 11.7547 120.677 11.744 120.442 11.744C119.205 11.744 118.202 12.0853 117.434 12.768C116.666 13.4293 116.282 14.5173 116.282 16.032V24H110.202ZM129.383 20.8L129.543 13.536L136.615 6.656H143.815L135.975 14.752L132.871 17.248L129.383 20.8ZM124.327 24V0.255999H130.407V24H124.327ZM137.063 24L131.751 17.344L135.527 12.672L144.423 24H137.063Z" fill="white"/>
<path d="M149.953 24.36C148.673 24.36 147.593 23.9333 146.713 23.08C145.833 22.2267 145.393 21.1467 145.393 19.84C145.393 18.48 145.833 17.4 146.713 16.6C147.593 15.7733 148.673 15.36 149.953 15.36C151.233 15.36 152.313 15.7733 153.193 16.6C154.073 17.4 154.513 18.48 154.513 19.84C154.513 21.1467 154.073 22.2267 153.193 23.08C152.313 23.9333 151.233 24.36 149.953 24.36Z" fill="#FAAF3D"/>
</svg>
